PathFileType        4      (X/Y/Z)      C:\Users\pc\Desktop\IMUTRC\Sujet_05\Sujet_05_velo_100.trc         
DataRate	CameraRate	NumFrames	NumMarkers	Units	OrigDataRate	OrigDataStartFrame	OrigNumFrames
60.0	60.0	4	64	mm	60.0	602	963
Frame#	Time	pHipOrigin			pRightASI			pLeftASI			pRightCSI			pLeftCSI			pRightIschialTub			pLeftIschialTub			pSacrum			pL5SpinalProcess			pL3SpinalProcess			pT12SpinalProcess			pIJ			pT4SpinalProcess			pT8SpinalProcess			pPX			pC7SpinalProcess			pTopOfHead			pRightAuricularis			pLeftAuricularis			pBackOfHead			pRightAcromion			pLeftAcromion			pRightArmLatEpicondyle			pRightArmMedEpicondyle			pLeftArmLatEpicondyle			pLeftArmMedEpicondyle			pRightUlnarStyloid			pRightRadialStyloid			pRightOlecranon			pLeftUlnarStyloid			pLeftRadialStyloid			pLeftOlecranon			pRightTopOfHand			pRightPinky			pRightBallHand			pLeftTopOfHand			pLeftPinky			pLeftBallHand			pRightGreaterTrochanter			pRightKneeLatEpicondyle			pRightKneeMedEpicondyle			pRightPatella			pLeftGreaterTrochanter			pLeftKneeLatEpicondyle			pLeftKneeMedEpicondyle			pLeftPatella			pRightTibialTub			pRightLatMalleolus			pRightMedMalleolus			pLeftTibialTub			pLeftLatMalleolus			pLeftMedMalleolus			pRightHeelFoot			pRightFirstMetatarsal			pRightFifthMetatarsal			pRightPivotFoot			pRightHeelCenter			pRightToe			pLeftHeelFoot			pLeftFirstMetatarsal			pLeftFifthMetatarsal			pLeftPivotFoot			pLeftHeelCenter			pLeftToe			
		X1	Y1	Z1	X2	Y2	Z2	X3	Y3	Z3	X4	Y4	Z4	X5	Y5	Z5	X6	Y6	Z6	X7	Y7	Z7	X8	Y8	Z8	X9	Y9	Z9	X10	Y10	Z10	X11	Y11	Z11	X12	Y12	Z12	X13	Y13	Z13	X14	Y14	Z14	X15	Y15	Z15	X16	Y16	Z16	X17	Y17	Z17	X18	Y18	Z18	X19	Y19	Z19	X20	Y20	Z20	X21	Y21	Z21	X22	Y22	Z22	X23	Y23	Z23	X24	Y24	Z24	X25	Y25	Z25	X26	Y26	Z26	X27	Y27	Z27	X28	Y28	Z28	X29	Y29	Z29	X30	Y30	Z30	X31	Y31	Z31	X32	Y32	Z32	X33	Y33	Z33	X34	Y34	Z34	X35	Y35	Z35	X36	Y36	Z36	X37	Y37	Z37	X38	Y38	Z38	X39	Y39	Z39	X40	Y40	Z40	X41	Y41	Z41	X42	Y42	Z42	X43	Y43	Z43	X44	Y44	Z44	X45	Y45	Z45	X46	Y46	Z46	X47	Y47	Z47	X48	Y48	Z48	X49	Y49	Z49	X50	Y50	Z50	X51	Y51	Z51	X52	Y52	Z52	X53	Y53	Z53	X54	Y54	Z54	X55	Y55	Z55	X56	Y56	Z56	X57	Y57	Z57	X58	Y58	Z58	X59	Y59	Z59	X60	Y60	Z60	X61	Y61	Z61	X62	Y62	Z62	X63	Y63	Z63	X64	Y64	Z64	
602	10.017	0.0	1249.9765	7.653898598672058E-14	71.92684000000001	1342.33261	119.85921000000009	52.79916999999999	1342.44579	-129.3098699999999	28.974460000000008	1404.8088	102.08971000000008	13.072459999999992	1404.86539	-105.20220999999991	-47.93237	1197.06415	55.79848000000007	-55.91166	1197.12074	-47.87577999999993	-62.13664	1269.83986	4.7536200000000814	-26.03175	1370.17526	1.1318200000000855	33.16218	1474.92474	-4.244309999999911	95.07246	1566.03585	-10.01655999999991	356.40855	1584.76739	-20.429259999999925	247.35817	1695.00617	-21.78743999999991	170.39475	1644.6404	-16.41131999999991	254.20565	1511.65214	-13.072459999999923	297.83712	1726.52722	-23.371979999999912	571.62317	1771.00755	-79.79295999999991	493.69771	1732.92197	15.505870000000076	454.93305	1740.90127	-125.46168999999992	457.19668	1791.26704	-47.19668999999992	296.25258	1659.18422	176.2236000000001	293.42304	1640.79223	-213.0641799999999	372.0276	1410.69424	178.37405000000007	360.20013	1404.29948	122.63216000000006	395.79571	1413.9765	-209.44236999999995	379.04485	1403.5638	-155.62455999999995	466.53415	1188.34918	160.66114000000005	510.39198	1212.0607	161.22705000000005	341.69495	1401.35676	152.17253000000005	501.56382	1201.76118	-232.53139999999993	540.2719	1230.05656	-246.45271999999994	365.34989	1400.16836	-176.73290999999995	550.00551	1123.38299	311.53208	509.26017	1121.45891	235.47411000000002	501.33746	1166.50515	179.10973000000007	624.36575	1164.24152	-377.17735	567.49205	1149.30156	-314.02208	541.51689	1186.02896	-257.14837	7.752930000000009	1215.56933	147.8716300000001	290.6501	991.69632	176.56314000000003	316.56866	1007.42855	112.95514000000004	323.69909	1030.85712	158.11456000000004	-13.185640000000008	1220.77568	-149.7957199999999	257.43133	991.52655	-221.60937999999996	289.91442	1001.88265	-159.92545999999996	293.53622	1028.25394	-203.83987999999997	351.71152	974.88886	158.34092000000004	303.89233	601.10696	148.43754	323.02001	604.95513	92.07315000000003	289.91442	948.63076	-200.67079999999999	14.77018999999999	698.04691	-140.85437999999994	37.123529999999995	693.74601	-85.73498999999995	257.26155	530.08556	105.31539000000001	419.56383	494.9993	94.61974	405.24637	490.35886	171.58316	433.93788	487.52932	135.70462	295.29054	523.69081	112.04969000000001	511.29743	468.57142	149.00345	-62.08005000000001	674.78811	-90.26224999999995	48.78123	556.96617	-51.384399999999964	32.70944999999999	542.30917	-126.70668999999997	55.062799999999996	532.57556	-87.65906999999997	-35.199450000000006	646.26637	-90.48860999999995	106.27743	469.75982	-86.41407999999997	
603	10.033	0.0	1249.9765	7.653898598672058E-14	72.20980000000002	1341.54034	120.31194000000009	51.38439999999999	1344.08692	-128.7439599999999	28.804690000000008	1403.90335	103.50448000000009	11.487919999999994	1406.05379	-103.67425999999992	-47.25328	1196.21529	55.57212000000007	-55.91166	1197.29051	-48.04554999999993	-62.24983	1269.44372	5.432710000000082	-26.71083	1369.9489	2.3768100000000856	31.74741	1475.09451	-3.1690799999999117	92.9786	1566.65835	-9.56383999999991	354.08833	1587.25738	-21.844029999999925	244.18909	1696.6473	-23.315389999999912	167.6218	1645.77222	-16.97722999999991	252.50793	1513.46304	-13.072459999999923	294.44168	1728.50789	-25.52242999999991	567.32228	1774.74254	-84.54657999999992	490.58522	1736.37401	11.601100000000077	450.46238	1743.7308	-129.0269099999999	453.12214	1794.32294	-50.93167999999992	294.66804	1662.63626	174.92201000000009	288.10351	1641.81086	-214.6487199999999	369.93374	1413.24082	178.26087000000007	357.71014	1406.44993	122.63216000000006	392.1739	1415.50445	-209.61213999999995	375.53622	1405.20493	-155.73774999999995	464.89302	1191.06553	162.01932000000005	508.69426	1214.89024	162.69841000000005	339.43132	1403.62039	152.05935000000005	500.26224	1204.30777	-231.56934999999993	538.74395	1232.94269	-245.43408999999994	361.89785	1401.52653	-176.95927999999995	547.6287	1127.06139	313.68253	507.33608	1124.68458	237.39820000000003	499.63974	1169.39127	180.75086000000005	623.63007	1167.01446	-375.70599	566.5866	1151.96132	-312.6639	540.2719	1188.74531	-255.95996999999994	5.1497600000000086	1212.90956	146.8530000000001	267.67425	964.92889	170.50793000000002	295.23395	980.1518	107.46584000000004	304.0621	1001.5997	153.30434000000002	-12.053830000000008	1222.75635	-150.3616199999999	273.89923	1014.89853	-227.72117999999998	305.75983	1026.16008	-165.92407999999998	307.34437	1053.71978	-209.21600999999998	330.3768	948.51757	153.41753000000003	290.14078	573.8868	144.36301	310.06072	577.84816	88.22498000000002	304.28847	972.39887	-206.27328999999997	24.107659999999992	728.7191	-141.42028999999994	47.026909999999994	724.36161	-86.52725999999996	242.66114	504.56313	98.86404000000002	404.39751	466.76051	88.33816	389.34437	460.13939	165.01863	418.26224	457.81917	129.30987	280.57694	497.26293	105.71152000000001	495.28225	436.99378	142.66528	-52.34644000000001	706.30916	-90.14906999999995	57.72257	586.90268	-53.81779999999996	40.51897999999999	573.20771	-129.08349999999996	63.21186999999999	562.79502	-90.43201999999997	-25.805380000000007	677.56106	-90.94133999999995	113.74741	499.41338	-90.48860999999997	
604	10.05	0.0	1249.9765	7.653898598672058E-14	72.60593000000001	1340.69148	120.70807000000009	50.25258999999999	1345.50169	-128.12145999999993	28.804690000000008	1403.05448	104.74948000000009	10.242929999999992	1407.07243	-102.25948999999991	-46.68737	1195.5362	55.34575000000007	-56.02484	1197.51688	-48.15872999999993	-62.24983	1269.16077	5.942030000000081	-27.22015	1369.83571	3.508630000000086	30.67219	1475.26428	-2.150449999999912	91.39406	1567.11107	-8.99792999999991	352.33401	1589.18146	-22.862659999999927	241.75569	1697.8923	-24.39060999999991	165.58454	1646.62108	-17.26017999999991	251.26293	1514.82122	-12.959279999999923	291.8385	1730.03584	-27.10696999999991	564.04001	1777.51548	-88.28156999999992	488.265	1738.97718	8.545200000000076	447.01034	1745.82466	-131.7432699999999	450.00965	1796.58657	-53.76120999999992	293.64941	1665.18284	174.01656000000008	283.80262	1642.60313	-215.8371199999999	368.17942	1414.93854	178.54382000000007	355.78605	1407.92129	122.97170000000006	389.23118	1416.57967	-209.55554999999995	372.81987	1406.44993	-155.56796999999995	463.70461	1192.98962	163.26432000000005	507.44926	1216.9841	164.11318000000006	337.62042	1405.14834	152.22912000000005	499.18701	1206.23185	-230.21116999999995	537.49895	1235.09314	-244.07590999999994	359.06831	1402.54517	-176.84609999999995	546.04415	1129.60798	315.43685	506.03449	1126.94821	239.03933000000004	498.45133	1171.48513	182.27881000000005	623.12076	1168.82537	-373.8385	565.9641	1153.88541	-310.90958	539.30986	1190.78258	-254.48860999999994	2.829540000000009	1211.04207	146.0607300000001	245.09454	942.91509	164.84886000000003	273.95582	957.17596	102.14631000000004	284.31193	976.98272	148.43754000000004	-10.80883000000001	1224.85021	-150.8709399999999	288.38647	1038.3271	-232.47479999999996	319.51138	1050.38093	-170.39474999999996	319.17183	1078.90266	-213.12076999999996	309.55141	925.48514	149.06004000000001	272.31469	550.57141	140.68461	293.14009	554.47618	84.88613000000001	317.98343	996.05381	-210.51758999999998	36.897169999999996	754.18494	-143.00482999999994	60.155969999999996	749.82745	-88.16838999999996	223.59006	483.51137	92.46929000000002	384.36438	441.57763	82.67909	368.17942	433.03243	158.90683	397.43684	430.99516	123.48102	261.16632	474.96617	99.48654000000002	473.5514	407.67977	137.0628	-38.65148000000001	730.58659	-91.05451999999995	73.34161	611.97238	-58.00551999999997	55.345749999999995	599.23946	-133.27121999999997	78.66114	588.6004	-95.07245999999996	-11.770880000000005	702.17804	-92.69564999999996	129.87577	526.1808	-96.77017999999998	
605	10.067	0.0	1249.9765	7.653898598672058E-14	73.11525000000002	1339.72943	121.10421000000008	49.403729999999996	1346.6901	-127.61213999999991	29.144240000000007	1402.20562	105.93789000000008	9.450659999999994	1407.92129	-100.95789999999991	-46.34782	1194.97029	55.119390000000074	-56.19462	1197.85642	-48.32849999999993	-62.24983	1268.991	6.4513500000000805	-27.38992	1369.72253	4.527260000000085	30.16287	1475.32087	-1.1318199999999115	90.5452	1567.33743	-8.26224999999991	351.31538	1590.48305	-23.541749999999926	240.28433	1698.68457	-24.899929999999912	164.33954	1647.13039	-17.09040999999991	250.58384	1515.72667	-12.732919999999924	290.25396	1731.11107	-28.01241999999991	562.11593	1778.76048	-90.65837999999991	486.79364	1740.50513	6.621120000000077	444.85989	1746.89989	-133.4975799999999	448.25534	1797.88815	-55.74188999999992	293.36645	1666.6542	173.62042000000008	280.57694	1643.22563	-216.51620999999992	366.70807	1415.56104	179.16632000000007	354.8806	1408.71356	123.48102000000006	386.96755	1417.14558	-209.27259999999995	371.17873	1407.52515	-154.94547999999995	463.25189	1194.06484	164.39613000000006	506.93995	1218.22909	165.41476000000006	336.43201	1405.77084	152.73844000000005	498.33815	1207.30708	-228.40026999999995	536.48032	1236.28154	-242.26499999999993	357.14423	1403.28085	-176.39336999999995	545.81779	1130.62661	316.45548	505.80813	1128.02344	240.00137000000004	498.0552	1172.67354	183.35403000000005	622.78121	1169.39127	-371.23533	565.45478	1154.67768	-308.47618	538.46099	1191.8578	-252.33815999999993	1.075220000000009	1209.91025	145.5514100000001	224.43892	925.54173	159.92546000000004	253.97929	938.61419	97.27950000000004	265.86335	957.06278	143.68392000000003	-9.280880000000009	1227.00066	-151.3802599999999	301.51552	1061.64249	-235.19115999999997	331.45203	1074.26222	-172.65837999999997	329.58453	1103.63282	-214.70530999999997	289.29192	906.97996	145.72118000000003	250.07453	532.17942	138.30779	272.20151	535.74464	83.01863000000002	330.88612	1019.99169	-212.66803999999996	53.59143999999999	773.59556	-145.89095999999995	76.68047	769.6908	-90.99792999999995	199.76535	467.89233	86.47067000000001	358.95513	419.90337	78.66114	340.67632	409.43408	154.2098	370.66942	407.39682	119.34989	236.83229	457.6494	93.99724000000002	445.36921	380.74257	133.49758	-20.825400000000005	745.46996	-93.60109999999996	96.82677	631.38301	-64.57004999999995	78.60454999999999	619.66872	-139.94892999999996	102.82539	609.14284	-102.25948999999996	7.300209999999994	718.36299	-96.14768999999995	156.75638	549.60937	-105.99447999999998	
